<svg xmlns="http://www.w3.org/2000/svg" width="33.387" height="29.778" viewBox="0 0 33.387 29.778">
  <g id="loved" transform="translate(-4.975 -10.932)">
    <path id="Path_1" data-name="Path 1" d="M20.706,14.488A8.649,8.649,0,1,0,8.488,26.706L21.666,39.884,34.844,26.733a8.727,8.727,0,0,0-2.33-13.963,8.308,8.308,0,0,0-3.779-.873,8.587,8.587,0,0,0-6.065,2.557l-1,.995Z" fill-rule="evenodd"/>
    <path id="Path_2" data-name="Path 2" d="M20.751,14.51A8.622,8.622,0,1,0,8.532,26.676L21.711,39.748,34.889,26.658a8.6,8.6,0,0,0-2.33-13.789A8.308,8.308,0,0,0,28.78,12h0a8.579,8.579,0,0,0-6.065,2.548l-1,.943Z" transform="translate(-0.045 -0.039)" fill="none" stroke="#000" stroke-linecap="round" stroke-linejoin="round" stroke-width="2" fill-rule="evenodd"/>
  </g>
</svg>
